<svg xmlns="http://www.w3.org/2000/svg" width="512" height="512" viewBox="0 0 512 512">
        
			<defs>
				<clipPath id="clip-shape">
					<path d="M 256,0 C 51.2,0 0,51.2 0,256 C 0,460.8 51.2,512 256,512 C 460.8,512 512,460.8 512,256 C 512,51.2 460.8,0 256,0 Z" />
				</clipPath>
			</defs>
		
		<defs>
			
		</defs>
        <g clip-path="url(#clip-shape)">
            
            <defs>
                <linearGradient id="bg-grad" x1="0%" y1="0%" x2="100%" y2="100%">
                    <stop offset="0%" stop-color="#30cfd0" /><stop offset="100%" stop-color="#330867" />
                </linearGradient>
            </defs>
            <rect width="100%" height="100%" fill="url(#bg-grad)" />
        
			
            <g transform="translate(256, 256) scale(10) rotate(0) translate(-12, -12)" opacity="1" >
					<title xmlns="" stroke="#ffffff">lucide:rocket</title>
<g xmlns="http://www.w3.org/2000/svg" fill="none" stroke="#ffffff" stroke-linecap="round" stroke-linejoin="round" stroke-width="2"><path d="M12 15v5s3.03-.55 4-2c1.08-1.62 0-5 0-5M4.5 16.5c-1.5 1.26-2 5-2 5s3.74-.5 5-2c.71-.84.7-2.13-.09-2.91a2.18 2.18 0 0 0-2.91-.09" stroke="#ffffff"/><path d="M9 12a22 22 0 0 1 2-3.95A12.88 12.88 0 0 1 22 2c0 2.72-.78 7.5-6 11a22.4 22.4 0 0 1-4 2z" stroke="#ffffff"/><path d="M9 12H4s.55-3.03 2-4c1.62-1.08 5 .05 5 .05" stroke="#ffffff"/></g>
				</g>
        </g>
    </svg>